HIERARCHY
ROOT mixamorig:Hips
{
	OFFSET 0.000000 104.274902 0.000000
	CHANNELS 6 Xposition Yposition Zposition Xrotation Yrotation Zrotation
	JOINT mixamorig:Spine
	{
		OFFSET 0.000000 10.181549 0.131524
		CHANNELS 6 Xposition Yposition Zposition Xrotation Yrotation Zrotation
		JOINT mixamorig:Spine1
		{
			OFFSET 0.000000 9.893990 -1.470706
			CHANNELS 3 Xrotation Yrotation Zrotation
			JOINT mixamorig:Spine2
			{
				OFFSET 0.000000 9.220787 -1.370637
				CHANNELS 3 Xrotation Yrotation Zrotation
				JOINT mixamorig:Neck
				{
					OFFSET 0.000000 16.740372 -2.049022
					CHANNELS 6 Xposition Yposition Zposition Xrotation Yrotation Zrotation
					JOINT mixamorig:Head
					{
						OFFSET 0.000000 9.617859 1.684976
						CHANNELS 6 Xposition Yposition Zposition Xrotation Yrotation Zrotation
						JOINT mixamorig:HeadTop_End
						{
							OFFSET 0.000000 22.037384 7.501072
							CHANNELS 6 Xposition Yposition Zposition Xrotation Yrotation Zrotation
							End Site
							{
								OFFSET 0.000000 23.106567 -2.828246
							}
						}
					}
				}
				JOINT mixamorig:RightShoulder
				{
					OFFSET -4.570000 11.014877 -2.160840
					CHANNELS 6 Xposition Yposition Zposition Xrotation Yrotation Zrotation
					JOINT mixamorig:RightArm
					{
						OFFSET -10.592867 -0.524796 -2.232105
						CHANNELS 3 Xrotation Yrotation Zrotation
						JOINT mixamorig:RightForeArm
						{
							OFFSET -27.841497 0.000000 -0.000002
							CHANNELS 3 Xrotation Yrotation Zrotation
							JOINT mixamorig:RightHand
							{
								OFFSET -28.328812 0.000000 -0.000001
								CHANNELS 3 Xrotation Yrotation Zrotation
								JOINT mixamorig:RightHandThumb1
								{
									OFFSET -2.464798 -1.573990 2.681911
									CHANNELS 6 Xposition Yposition Zposition Xrotation Yrotation Zrotation
									JOINT mixamorig:RightHandThumb2
									{
										OFFSET -3.244781 -1.873383 1.873376
										CHANNELS 3 Xrotation Yrotation Zrotation
										JOINT mixamorig:RightHandThumb3
										{
											OFFSET -2.646263 -1.527817 1.527818
											CHANNELS 6 Xposition Yposition Zposition Xrotation Yrotation Zrotation
											JOINT mixamorig:RightHandThumb4
											{
												OFFSET -1.994591 -1.151581 1.151575
												CHANNELS 6 Xposition Yposition Zposition Xrotation Yrotation Zrotation
												End Site
												{
													OFFSET -1.860176 -1.142715 1.365483
												}
											}
										}
									}
								}
								JOINT mixamorig:RightHandIndex1
								{
									OFFSET -9.108299 -0.517883 2.259803
									CHANNELS 6 Xposition Yposition Zposition Xrotation Yrotation Zrotation
									JOINT mixamorig:RightHandIndex2
									{
										OFFSET -3.699997 0.000000 0.000000
										CHANNELS 3 Xrotation Yrotation Zrotation
										JOINT mixamorig:RightHandIndex3
										{
											OFFSET -2.850006 0.000000 0.000000
											CHANNELS 3 Xrotation Yrotation Zrotation
											JOINT mixamorig:RightHandIndex4
											{
												OFFSET -2.772194 0.000000 0.000000
												CHANNELS 3 Xrotation Yrotation Zrotation
												End Site
												{
													OFFSET -2.772202 0.000000 -0.000484
												}
											}
										}
									}
								}
								JOINT mixamorig:RightHandMiddle1
								{
									OFFSET -9.532501 0.000000 -0.000000
									CHANNELS 6 Xposition Yposition Zposition Xrotation Yrotation Zrotation
									JOINT mixamorig:RightHandMiddle2
									{
										OFFSET -3.699997 0.000000 0.000000
										CHANNELS 3 Xrotation Yrotation Zrotation
										JOINT mixamorig:RightHandMiddle3
										{
											OFFSET -2.949997 0.000000 0.000000
											CHANNELS 3 Xrotation Yrotation Zrotation
											JOINT mixamorig:RightHandMiddle4
											{
												OFFSET -2.946594 0.000000 0.000000
												CHANNELS 3 Xrotation Yrotation Zrotation
												End Site
												{
													OFFSET -2.946602 0.000000 -0.000982
												}
											}
										}
									}
								}
								JOINT mixamorig:RightHandRing1
								{
									OFFSET -9.103600 -0.043106 -1.865100
									CHANNELS 6 Xposition Yposition Zposition Xrotation Yrotation Zrotation
									JOINT mixamorig:RightHandRing2
									{
										OFFSET -3.379303 0.000000 0.000000
										CHANNELS 3 Xrotation Yrotation Zrotation
										JOINT mixamorig:RightHandRing3
										{
											OFFSET -2.889694 0.000000 0.000000
											CHANNELS 3 Xrotation Yrotation Zrotation
											JOINT mixamorig:RightHandRing4
											{
												OFFSET -2.638802 0.000000 0.000000
												CHANNELS 3 Xrotation Yrotation Zrotation
												End Site
												{
													OFFSET -2.638802 0.000000 0.004218
												}
											}
										}
									}
								}
								JOINT mixamorig:RightHandPinky1
								{
									OFFSET -8.076698 -0.486725 -3.806299
									CHANNELS 6 Xposition Yposition Zposition Xrotation Yrotation Zrotation
									JOINT mixamorig:RightHandPinky2
									{
										OFFSET -3.600006 0.000000 0.000000
										CHANNELS 3 Xrotation Yrotation Zrotation
										JOINT mixamorig:RightHandPinky3
										{
											OFFSET -2.099998 0.000000 0.000000
											CHANNELS 3 Xrotation Yrotation Zrotation
											JOINT mixamorig:RightHandPinky4
											{
												OFFSET -2.115791 0.000000 0.000000
												CHANNELS 3 Xrotation Yrotation Zrotation
												End Site
												{
													OFFSET -2.115799 0.000000 0.000174
												}
											}
										}
									}
								}
							}
						}
					}
				}
				JOINT mixamorig:LeftShoulder
				{
					OFFSET 4.570400 11.014679 -2.160816
					CHANNELS 6 Xposition Yposition Zposition Xrotation Yrotation Zrotation
					JOINT mixamorig:LeftArm
					{
						OFFSET 10.592373 -0.524597 -2.232116
						CHANNELS 3 Xrotation Yrotation Zrotation
						JOINT mixamorig:LeftForeArm
						{
							OFFSET 27.841488 0.000000 0.000001
							CHANNELS 3 Xrotation Yrotation Zrotation
							JOINT mixamorig:LeftHand
							{
								OFFSET 28.328808 0.000000 -0.000000
								CHANNELS 3 Xrotation Yrotation Zrotation
								JOINT mixamorig:LeftHandThumb1
								{
									OFFSET 2.466103 -1.576202 2.681698
									CHANNELS 6 Xposition Yposition Zposition Xrotation Yrotation Zrotation
									JOINT mixamorig:LeftHandThumb2
									{
										OFFSET 3.243317 -1.872528 1.872530
										CHANNELS 3 Xrotation Yrotation Zrotation
										JOINT mixamorig:LeftHandThumb3
										{
											OFFSET 2.647881 -1.528763 1.528754
											CHANNELS 6 Xposition Yposition Zposition Xrotation Yrotation Zrotation
											JOINT mixamorig:LeftHandThumb4
											{
												OFFSET 1.998924 -1.154083 1.154080
												CHANNELS 6 Xposition Yposition Zposition Xrotation Yrotation Zrotation
												End Site
												{
													OFFSET 1.884041 -1.149155 1.337651
												}
											}
										}
									}
								}
								JOINT mixamorig:LeftHandIndex1
								{
									OFFSET 9.109299 -0.518005 2.259900
									CHANNELS 6 Xposition Yposition Zposition Xrotation Yrotation Zrotation
									JOINT mixamorig:LeftHandIndex2
									{
										OFFSET 3.699997 0.000000 0.000000
										CHANNELS 3 Xrotation Yrotation Zrotation
										JOINT mixamorig:LeftHandIndex3
										{
											OFFSET 2.850006 0.000000 0.000000
											CHANNELS 3 Xrotation Yrotation Zrotation
											JOINT mixamorig:LeftHandIndex4
											{
												OFFSET 2.774895 0.000000 0.000000
												CHANNELS 3 Xrotation Yrotation Zrotation
												End Site
												{
													OFFSET 2.774902 0.000000 -0.000072
												}
											}
										}
									}
								}
								JOINT mixamorig:LeftHandMiddle1
								{
									OFFSET 9.533401 0.000000 0.000000
									CHANNELS 6 Xposition Yposition Zposition Xrotation Yrotation Zrotation
									JOINT mixamorig:LeftHandMiddle2
									{
										OFFSET 3.699997 0.000000 0.000000
										CHANNELS 3 Xrotation Yrotation Zrotation
										JOINT mixamorig:LeftHandMiddle3
										{
											OFFSET 2.949997 0.000000 0.000000
											CHANNELS 3 Xrotation Yrotation Zrotation
											JOINT mixamorig:LeftHandMiddle4
											{
												OFFSET 2.952896 0.000000 0.000000
												CHANNELS 3 Xrotation Yrotation Zrotation
												End Site
												{
													OFFSET 2.952904 0.000000 0.000165
												}
											}
										}
									}
								}
								JOINT mixamorig:LeftHandRing1
								{
									OFFSET 9.104500 -0.042999 -1.865101
									CHANNELS 6 Xposition Yposition Zposition Xrotation Yrotation Zrotation
									JOINT mixamorig:LeftHandRing2
									{
										OFFSET 3.149994 0.000000 0.000000
										CHANNELS 3 Xrotation Yrotation Zrotation
										JOINT mixamorig:LeftHandRing3
										{
											OFFSET 2.950005 0.000000 0.000000
											CHANNELS 3 Xrotation Yrotation Zrotation
											JOINT mixamorig:LeftHandRing4
											{
												OFFSET 2.644302 0.000000 0.000000
												CHANNELS 3 Xrotation Yrotation Zrotation
												End Site
												{
													OFFSET 2.644302 0.000000 0.000083
												}
											}
										}
									}
								}
								JOINT mixamorig:LeftHandPinky1
								{
									OFFSET 8.077805 -0.486893 -3.806302
									CHANNELS 6 Xposition Yposition Zposition Xrotation Yrotation Zrotation
									JOINT mixamorig:LeftHandPinky2
									{
										OFFSET 3.600006 0.000000 0.000000
										CHANNELS 3 Xrotation Yrotation Zrotation
										JOINT mixamorig:LeftHandPinky3
										{
											OFFSET 2.099998 0.000000 0.000000
											CHANNELS 3 Xrotation Yrotation Zrotation
											JOINT mixamorig:LeftHandPinky4
											{
												OFFSET 2.125496 0.000000 0.000000
												CHANNELS 3 Xrotation Yrotation Zrotation
												End Site
												{
													OFFSET 2.125504 0.000000 -0.001254
												}
											}
										}
									}
								}
							}
						}
					}
				}
			}
		}
	}
	JOINT mixamorig:RightUpLeg
	{
		OFFSET -8.207800 -6.751701 -1.599544
		CHANNELS 6 Xposition Yposition Zposition Xrotation Yrotation Zrotation
		JOINT mixamorig:RightLeg
		{
			OFFSET 0.000004 -44.370152 0.345934
			CHANNELS 3 Xrotation Yrotation Zrotation
			JOINT mixamorig:RightFoot
			{
				OFFSET 0.000004 -44.423664 -3.043535
				CHANNELS 3 Xrotation Yrotation Zrotation
				JOINT mixamorig:RightToeBase
				{
					OFFSET 0.000001 -8.728691 10.710592
					CHANNELS 3 Xrotation Yrotation Zrotation
					JOINT mixamorig:RightToe_End
					{
						OFFSET 0.000000 -0.000665 9.278101
						CHANNELS 3 Xrotation Yrotation Zrotation
						End Site
						{
							OFFSET 0.000000 -0.000665 9.278103
						}
					}
				}
			}
		}
	}
	JOINT mixamorig:LeftUpLeg
	{
		OFFSET 8.207800 -6.751701 -1.599544
		CHANNELS 6 Xposition Yposition Zposition Xrotation Yrotation Zrotation
		JOINT mixamorig:LeftLeg
		{
			OFFSET 0.000004 -44.370037 0.346940
			CHANNELS 3 Xrotation Yrotation Zrotation
			JOINT mixamorig:LeftFoot
			{
				OFFSET 0.000004 -44.423611 -3.044388
				CHANNELS 3 Xrotation Yrotation Zrotation
				JOINT mixamorig:LeftToeBase
				{
					OFFSET 0.000001 -8.728690 10.710592
					CHANNELS 3 Xrotation Yrotation Zrotation
					JOINT mixamorig:LeftToe_End
					{
						OFFSET 0.000000 -0.000680 9.278101
						CHANNELS 3 Xrotation Yrotation Zrotation
						End Site
						{
							OFFSET 0.000000 -0.000680 9.278101
						}
					}
				}
			}
		}
	}
}
MOTION
Frames: 4
Frame Time: 0.033333
-1.058894 88.188828 0.619161 -5.398693 -46.329228 0.072565 0.000001 10.181552 0.131520 9.493228 7.235764 -1.944549 2.187716 0.989896 -0.915630 2.202828 0.982772 -0.894153 0.000000 16.740381 -2.049024 0.084651 13.220551 4.538680 0.000000 9.617861 1.684973 8.920925 20.138147 -4.130236 -0.000004 22.037384 7.501075 0.000000 0.000000 0.000001 -4.569999 11.014888 -2.160840 3.036132 13.027206 -5.371367 -48.713794 27.172781 83.457105 0.000214 105.988294 -0.000150 -8.345316 17.548064 8.775668 -2.464789 -1.574004 2.681916 -7.341123 13.749649 7.412342 9.855787 -44.489124 -3.903166 -2.646267 -1.527816 1.527824 -0.115746 -14.513042 -28.973891 -1.994606 -1.151583 1.151585 0.000001 -0.000007 0.000003 -9.108287 -0.517882 2.259805 -0.124384 -2.384774 45.108881 4.500579 -4.654540 88.071178 1.723221 -3.618373 50.920126 0.000002 0.000002 -0.000000 -9.532482 0.000006 0.000003 -0.761625 -2.932893 39.031061 5.133864 -4.632752 95.881649 1.739734 -3.631693 51.181377 -0.000002 -0.000000 0.000001 -9.103584 -0.043111 -1.865100 0.154758 -4.068810 39.122671 6.509710 -4.273580 113.462863 2.549578 -4.153920 63.067337 -0.000000 0.000000 -0.000002 -8.076696 -0.486723 -3.806300 -4.198884 -8.025506 44.637776 4.252899 -4.639622 85.014805 6.935975 -4.062623 119.322298 -0.000002 -0.000000 0.000000 4.570402 11.014683 -2.160816 1.117170 3.546351 -8.633345 -53.487006 4.935514 -51.503014 0.000007 -106.358067 0.000006 1.988494 -7.706205 -15.869262 2.466104 -1.576207 2.681701 -6.141120 -11.690716 -6.761679 9.914108 42.595525 3.409811 2.647873 -1.528762 1.528741 -0.422791 8.108095 27.509118 1.998924 -1.154111 1.154081 -0.000002 0.000003 0.000003 9.109291 -0.518008 2.259903 0.255272 3.378302 -45.814344 5.654084 5.847951 -88.067455 2.162119 4.544918 -50.866365 0.000001 0.000002 -0.000005 9.533423 0.000012 0.000003 -0.461508 3.841669 -39.722673 6.450759 5.820543 -95.892871 2.182858 4.561668 -51.127716 -0.000000 -0.000000 -0.000002 9.104522 -0.043007 -1.865101 0.469691 4.966912 -39.799434 8.181097 5.368828 -113.503018 3.200468 5.218251 -63.022975 0.000001 0.000001 0.000001 8.077819 -0.486885 -3.806301 -3.762472 9.063783 -45.253791 5.342530 5.829171 -85.005331 8.716885 5.103540 -119.369194 -0.000001 -0.000000 -0.000002 -8.207802 -6.751716 -1.599543 -25.569324 -10.897101 -27.486903 57.437076 -9.745195 -7.683620 -24.524327 -5.586011 20.269879 -0.012997 -0.000008 -0.000003 -0.000000 0.000001 0.000001 8.207800 -6.751705 -1.599548 -31.716079 8.643086 16.402687 58.914521 -6.291134 4.271535 -24.207476 -8.307985 -13.607264 -1.594040 -0.000007 0.000001 0.000000 -0.000000 0.000000 
-1.190519 88.373955 0.740096 -6.092901 -46.006283 -0.438563 -0.000000 10.181550 0.131523 9.236181 6.724492 -2.008201 2.898730 0.918381 -1.176520 2.913185 0.909186 -1.153726 -0.000000 16.740374 -2.049023 0.070569 12.409906 4.291693 -0.000003 9.617865 1.684973 9.023523 20.695832 -4.160590 0.000007 22.037384 7.501070 -0.000000 -0.000000 -0.000000 -4.569999 11.014881 -2.160840 3.630709 13.556368 -4.154625 -48.448441 28.155471 80.957290 0.000208 106.723113 -0.000168 -11.514150 17.310163 9.306408 -2.464789 -1.574018 2.681916 -7.341121 13.749650 7.412339 9.855776 -44.489124 -3.903153 -2.646244 -1.527801 1.527822 -0.115746 -14.513049 -28.973891 -1.994606 -1.151577 1.151566 -0.000000 -0.000006 0.000003 -9.108306 -0.517897 2.259807 -0.124385 -2.384774 45.108881 4.500578 -4.654540 88.071178 1.723220 -3.618373 50.920126 -0.000000 -0.000001 0.000001 -9.532509 -0.000009 0.000004 -0.761625 -2.932893 39.031065 5.133863 -4.632752 95.881649 1.739733 -3.631692 51.181377 -0.000001 0.000003 0.000002 -9.103600 -0.043111 -1.865097 0.154758 -4.068812 39.122678 6.509712 -4.273583 113.462863 2.549577 -4.153917 63.067337 -0.000001 -0.000001 -0.000001 -8.076689 -0.486738 -3.806287 -4.198887 -8.025509 44.637776 4.252896 -4.639623 85.014805 6.935976 -4.062621 119.322298 0.000000 -0.000000 -0.000000 4.570399 11.014693 -2.160816 0.803608 3.293306 -7.335390 -51.305878 5.161275 -52.053777 0.000085 -107.440973 0.000088 0.456209 -8.276688 -15.963988 2.466093 -1.576223 2.681697 -6.141116 -11.690716 -6.761678 9.914105 42.595522 3.409804 2.647869 -1.528751 1.528752 -0.422795 8.108095 27.509116 1.998920 -1.154089 1.154068 -0.000001 -0.000003 0.000002 9.109272 -0.518012 2.259898 0.255275 3.378303 -45.814341 5.654085 5.847950 -88.067455 2.162119 4.544918 -50.866359 0.000001 0.000000 0.000002 9.533407 0.000005 -0.000001 -0.461506 3.841672 -39.722679 6.450759 5.820543 -95.892871 2.182859 4.561670 -51.127712 0.000001 -0.000003 0.000001 9.104499 -0.042980 -1.865098 0.469694 4.966911 -39.799434 8.181095 5.368829 -113.503025 3.200467 5.218252 -63.022975 0.000002 -0.000001 -0.000000 8.077815 -0.486866 -3.806296 -3.762468 9.063782 -45.253787 5.342532 5.829169 -85.005331 8.716887 5.103548 -119.369194 0.000003 -0.000000 -0.000003 -8.207805 -6.751711 -1.599540 -24.610565 -10.947789 -27.434481 57.187340 -9.417351 -7.473713 -24.017076 -5.920370 20.005158 -0.541754 0.000007 -0.000002 0.000000 -0.000000 -0.000000 8.207798 -6.751693 -1.599545 -30.843690 8.644027 15.957815 58.476480 -6.311284 4.859975 -24.392906 -8.145517 -14.050343 -1.538182 0.000005 -0.000008 0.000000 -0.000000 0.000000 
-1.134314 88.741020 0.746433 -5.637939 -45.169735 -0.443213 0.000000 10.181554 0.131524 8.918895 6.132454 -2.079860 3.552814 0.780469 -1.458036 3.567740 0.766095 -1.437918 0.000001 16.740345 -2.049021 -0.464368 11.407691 4.277103 0.000000 9.617846 1.684971 7.924620 21.091310 -3.923977 -0.000001 22.037369 7.501077 -0.000001 -0.000000 0.000000 -4.570001 11.014875 -2.160841 4.269220 14.092479 -3.076333 -48.805328 29.198499 78.323938 0.000257 107.708484 -0.000179 -13.319738 16.445212 9.622148 -2.464789 -1.574019 2.681907 -7.341128 13.749649 7.412341 9.855777 -44.489124 -3.903163 -2.646259 -1.527808 1.527829 -0.115745 -14.513045 -28.973888 -1.994577 -1.151568 1.151569 -0.000000 0.000005 -0.000002 -9.108294 -0.517894 2.259795 -0.124386 -2.384780 45.108881 4.500579 -4.654540 88.071178 1.723222 -3.618372 50.920129 0.000000 -0.000002 0.000005 -9.532497 -0.000006 -0.000009 -0.761627 -2.932896 39.031058 5.133863 -4.632752 95.881649 1.739737 -3.631695 51.181377 -0.000001 0.000002 0.000004 -9.103592 -0.043122 -1.865107 0.154758 -4.068813 39.122671 6.509711 -4.273582 113.462863 2.549579 -4.153918 63.067337 -0.000002 -0.000000 0.000001 -8.076685 -0.486738 -3.806298 -4.198887 -8.025512 44.637776 4.252905 -4.639622 85.014805 6.935976 -4.062624 119.322298 -0.000001 0.000000 0.000001 4.570399 11.014675 -2.160816 0.108783 3.608966 -5.312950 -51.510958 5.150297 -50.941231 0.000012 -108.146285 0.000022 -1.682928 -9.224591 -15.480835 2.466108 -1.576201 2.681701 -6.141117 -11.690714 -6.761678 9.914114 42.595529 3.409815 2.647865 -1.528751 1.528748 -0.422796 8.108099 27.509116 1.998932 -1.154086 1.154079 -0.000001 0.000006 0.000003 9.109303 -0.517997 2.259905 0.255272 3.378302 -45.814341 5.654082 5.847951 -88.067455 2.162118 4.544915 -50.866365 0.000000 0.000001 -0.000001 9.533415 0.000028 0.000003 -0.461507 3.841673 -39.722673 6.450761 5.820544 -95.892871 2.182861 4.561669 -51.127712 0.000001 0.000000 -0.000000 9.104506 -0.043003 -1.865099 0.469691 4.966915 -39.799434 8.181096 5.368830 -113.503025 3.200468 5.218250 -63.022968 0.000000 -0.000001 0.000002 8.077811 -0.486866 -3.806297 -3.762469 9.063782 -45.253787 5.342530 5.829170 -85.005331 8.716886 5.103542 -119.369194 -0.000000 0.000000 -0.000001 -8.207807 -6.751710 -1.599545 -23.920388 -10.552034 -26.767967 56.858207 -8.635972 -6.634708 -22.963181 -7.416617 19.016719 -1.523439 0.000016 0.000010 0.000000 0.000001 0.000000 8.207799 -6.751714 -1.599544 -30.985133 8.131036 15.312248 57.814334 -6.138880 5.698262 -23.740626 -8.113476 -14.137374 -1.695670 0.000010 -0.000007 -0.000000 0.000001 0.000000 
-0.629838 89.457558 0.396825 -3.313765 -44.047258 0.263615 -0.000000 10.181550 0.131519 8.719565 5.615771 -2.084475 4.285261 0.755638 -1.688156 4.301000 0.734381 -1.669894 0.000000 16.740355 -2.049021 -1.764152 10.144562 4.544922 0.000000 9.617832 1.684978 2.388012 21.618990 -2.808879 0.000000 22.037384 7.501068 0.000000 -0.000000 0.000000 -4.570001 11.014888 -2.160843 5.034843 14.988524 -2.755762 -50.836333 30.164444 75.043104 0.000184 109.108679 -0.000138 -13.872000 15.210970 10.141350 -2.464779 -1.574000 2.681909 -7.341129 13.749650 7.412339 9.855779 -44.489124 -3.903156 -2.646259 -1.527781 1.527825 -0.115749 -14.513044 -28.973888 -1.994586 -1.151587 1.151590 -0.000001 0.000004 0.000001 -9.108287 -0.517882 2.259805 -0.124385 -2.384775 45.108881 4.500577 -4.654540 88.071178 1.723221 -3.618372 50.920122 -0.000001 -0.000001 0.000004 -9.532501 0.000006 0.000001 -0.761627 -2.932894 39.031061 5.133862 -4.632754 95.881649 1.739736 -3.631692 51.181377 -0.000000 -0.000000 0.000001 -9.103592 -0.043103 -1.865098 0.154758 -4.068813 39.122675 6.509709 -4.273581 113.462863 2.549578 -4.153917 63.067337 -0.000002 0.000001 0.000002 -8.076701 -0.486730 -3.806296 -4.198886 -8.025505 44.637776 4.252903 -4.639622 85.014805 6.935978 -4.062620 119.322298 0.000000 0.000000 0.000000 4.570401 11.014695 -2.160820 -0.883328 4.201523 -2.445934 -52.992559 4.881082 -50.121257 -0.000009 -108.404255 -0.000010 -4.229036 -10.244637 -14.445022 2.466098 -1.576211 2.681702 -6.141116 -11.690714 -6.761676 9.914117 42.595525 3.409808 2.647877 -1.528766 1.528756 -0.422796 8.108100 27.509121 1.998937 -1.154083 1.154079 -0.000001 0.000005 -0.000002 9.109280 -0.518008 2.259899 0.255275 3.378302 -45.814341 5.654086 5.847951 -88.067455 2.162118 4.544917 -50.866365 0.000000 -0.000001 0.000002 9.533400 0.000009 0.000004 -0.461507 3.841672 -39.722676 6.450760 5.820545 -95.892871 2.182858 4.561669 -51.127712 0.000001 -0.000003 0.000000 9.104499 -0.043006 -1.865103 0.469694 4.966912 -39.799441 8.181092 5.368830 -113.503018 3.200468 5.218249 -63.022968 0.000000 -0.000001 0.000002 8.077785 -0.486881 -3.806304 -3.762469 9.063782 -45.253791 5.342530 5.829171 -85.005331 8.716887 5.103543 -119.369194 0.000000 0.000000 0.000000 -8.207808 -6.751704 -1.599543 -24.381950 -9.814729 -25.470370 56.033598 -7.745434 -5.043811 -20.677744 -9.012062 17.918542 -3.155703 -0.000005 -0.000011 -0.000000 0.000000 0.000000 8.207798 -6.751697 -1.599553 -33.019600 6.797190 14.615480 56.927636 -5.230437 6.713374 -21.265200 -8.224908 -13.989110 -3.355141 0.000002 0.000002 0.000000 -0.000001 0.000000 
